/* XPM */
static char * default_texture_xpm[] = {
/* columns rows colors chars-per-pixel */
"100 100 2 1",
" 	c #FD00CE",
".	c #000000",
"                                                  ..................................................",
"                                                  ..................................................",
"                                                  ..................................................",
"                                                  ..................................................",
"                                                  ..................................................",
"                                                  ..................................................",
"                                                  ..................................................",
"                                                  ..................................................",
"                                                  ..................................................",
"                                                  ..................................................",
"                                                  ..................................................",
"                                                  ..................................................",
"                                                  ..................................................",
"                                                  ..................................................",
"                                                  ..................................................",
"                                                  ..................................................",
"                                                  ..................................................",
"                                                  ..................................................",
"                                                  ..................................................",
"                                                  ..................................................",
"                                                  ..................................................",
"                                                  ..................................................",
"                                                  ..................................................",
"                                                  ..................................................",
"                                                  ..................................................",
"                                                  ..................................................",
"                                                  ..................................................",
"                                                  ..................................................",
"                                                  ..................................................",
"                                                  ..................................................",
"                                                  ..................................................",
"                                                  ..................................................",
"                                                  ..................................................",
"                                                  ..................................................",
"                                                  ..................................................",
"                                                  ..................................................",
"                                                  ..................................................",
"                                                  ..................................................",
"                                                  ..................................................",
"                                                  ..................................................",
"                                                  ..................................................",
"                                                  ..................................................",
"                                                  ..................................................",
"                                                  ..................................................",
"                                                  ..................................................",
"                                                  ..................................................",
"                                                  ..................................................",
"                                                  ..................................................",
"                                                  ..................................................",
"                                                  ..................................................",
"..................................................                                                  ",
"..................................................                                                  ",
"..................................................                                                  ",
"..................................................                                                  ",
"..................................................                                                  ",
"..................................................                                                  ",
"..................................................                                                  ",
"..................................................                                                  ",
"..................................................                                                  ",
"..................................................                                                  ",
"..................................................                                                  ",
"..................................................                                                  ",
"..................................................                                                  ",
"..................................................                                                  ",
"..................................................                                                  ",
"..................................................                                                  ",
"..................................................                                                  ",
"..................................................                                                  ",
"..................................................                                                  ",
"..................................................                                                  ",
"..................................................                                                  ",
"..................................................                                                  ",
"..................................................                                                  ",
"..................................................                                                  ",
"..................................................                                                  ",
"..................................................                                                  ",
"..................................................                                                  ",
"..................................................                                                  ",
"..................................................                                                  ",
"..................................................                                                  ",
"..................................................                                                  ",
"..................................................                                                  ",
"..................................................                                                  ",
"..................................................                                                  ",
"..................................................                                                  ",
"..................................................                                                  ",
"..................................................                                                  ",
"..................................................                                                  ",
"..................................................                                                  ",
"..................................................                                                  ",
"..................................................                                                  ",
"..................................................                                                  ",
"..................................................                                                  ",
"..................................................                                                  ",
"..................................................                                                  ",
"..................................................                                                  ",
"..................................................                                                  ",
"..................................................                                                  ",
"..................................................                                                  ",
"..................................................                                                  "};
